<svg xmlns="http://www.w3.org/2000/svg" viewBox="0 0 256 256">
<!-- Mi-28NM — T3 oriental. Como el Mi-28N pero SIN radar de mástil: radomo bajo el morro, escapes laterales mejorados, pylones dobles. -->
<defs>
  <linearGradient id="g-hull" x1="0.12" y1="0" x2="0.9" y2="0.15">
    <stop offset="0" stop-color="#b9c2a8"/><stop offset="0.34" stop-color="#8a9478"/>
    <stop offset="0.62" stop-color="#6b7459"/><stop offset="1" stop-color="#454b38"/>
  </linearGradient>
  <linearGradient id="g-spine" x1="0.3" y1="0" x2="0.75" y2="0">
    <stop offset="0" stop-color="#fff" stop-opacity="0"/><stop offset="0.45" stop-color="#fff" stop-opacity="0.45"/>
    <stop offset="1" stop-color="#fff" stop-opacity="0"/>
  </linearGradient>
  <linearGradient id="g-glass-blue" x1="0.15" y1="0" x2="0.85" y2="0.4">
    <stop offset="0" stop-color="#cfe4f2"/><stop offset="0.4" stop-color="#7fa8c4"/>
    <stop offset="1" stop-color="#2f4d66"/>
  </linearGradient>
  <linearGradient id="g-metal" x1="0" y1="0" x2="1" y2="0">
    <stop offset="0" stop-color="#e3e8ec"/><stop offset="0.55" stop-color="#a8b0b7"/>
    <stop offset="1" stop-color="#666e75"/>
  </linearGradient>
  <radialGradient id="g-nozzle" cx="0.5" cy="0.4" r="0.6">
    <stop offset="0" stop-color="#12151a"/><stop offset="0.6" stop-color="#2c3138"/>
    <stop offset="1" stop-color="#5b636b"/>
  </radialGradient>
  <radialGradient id="g-dome" cx="0.38" cy="0.32" r="0.8">
    <stop offset="0" stop-color="#c8ced4"/><stop offset="0.5" stop-color="#8a9298"/>
    <stop offset="1" stop-color="#4e555c"/>
  </radialGradient>
  <path id="hull" d="
    M128 56 C136 60 141 70 142 84 L143 100
    L145 122 L145 144 L143 164
    C143 176 140 186 136 194 L134 200
    C132 204 130 206 128 206 C126 206 124 204 122 200
    L120 194 C116 186 113 176 113 164 L111 144
    L111 122 L113 100 L114 84 C115 70 120 60 128 56 Z"/>
</defs>
<g id="unit">
  <circle cx="128" cy="114" r="90" fill="#cfd6dd" fill-opacity="0.11"/>
  <use href="#hull" fill="#0a0d11" opacity="0.28" transform="translate(5,7)"/>
  <g fill="url(#g-metal)">
    <rect x="78" y="122" width="35" height="4" rx="2"/>
    <rect x="143" y="122" width="35" height="4" rx="2"/>
  </g>
  <g fill="#5c646c">
    <rect x="72" y="114" width="10" height="24" rx="2.5"/>
    <rect x="174" y="114" width="10" height="24" rx="2.5"/>
    <rect x="88" y="132" width="8" height="18" rx="2"/>
    <rect x="160" y="132" width="8" height="18" rx="2"/>
    <rect x="98" y="108" width="7" height="14" rx="2"/>
    <rect x="151" y="108" width="7" height="14" rx="2"/>
  </g>
  <use href="#hull" fill="url(#g-hull)"/>
  <g fill="#000" fill-opacity="0.10">
    <path d="M113 100 L111 122 L111 144 L113 164 L119 144 L119 106 Z"/>
    <path d="M143 100 L145 122 L145 144 L143 164 L137 144 L137 106 Z"/>
  </g>
  <path fill="url(#g-spine)" d="
    M128 58 C134 64 138 74 139 88 L140 110 L141 156 L137 192
    L128 204 L119 192 L115 156 L116 110 L117 88
    C118 74 122 64 128 58 Z"/>
  <g fill="none" stroke="#394047" stroke-opacity="0.48" stroke-width="0.9" stroke-linecap="round">
    <path d="M119 80 L137 80"/><path d="M116 106 L140 106"/>
    <path d="M115 132 L141 132"/><path d="M118 160 L138 160"/>
    <path d="M120 182 L136 182"/>
  </g>
  <path fill="url(#g-glass-blue)" d="
    M128 64 C135 68 139 78 139 90 C139 100 135 106 128 106
    C121 106 117 100 117 90 C117 78 121 68 128 64 Z"/>
  <path fill="#fff" fill-opacity="0.42" d="
    M127 67 C123 72 121 79 121 90 C121 96 121 101 123 104
    C121 101 119 96 119 90 C119 79 122 71 127 67 Z"/>
  <path fill="none" stroke="#2b3137" stroke-width="1.1" stroke-opacity="0.75" d="M118 82 C122 78 134 78 138 82"/>
  <path fill="none" stroke="#2b3137" stroke-width="1" stroke-opacity="0.55" d="M118 100 L138 100"/>
  <ellipse cx="128" cy="50" rx="9" ry="7" fill="url(#g-dome)"/>
  <ellipse cx="125" cy="47" rx="3.5" ry="2.5" fill="#fff" fill-opacity="0.35"/>
  <ellipse cx="128" cy="50" rx="9" ry="7" fill="none" stroke="#3d4232" stroke-width="1"/>
  <path d="M128 43 L128 34" stroke="#2b3137" stroke-width="2.5" stroke-linecap="round"/>
  <g fill="url(#g-nozzle)">
    <path d="M106 110 L113 110 L112 130 L107 130 Z"/>
    <path d="M150 110 L143 110 L144 130 L149 130 Z"/>
  </g>
  <g fill="#3f474e" fill-opacity="0.55">
    <path d="M128 28 L131 112 L125 112 Z"/>
    <path d="M195 72 L131 111 L128 106 Z"/>
    <path d="M212 152 L133 117 L130 122 Z"/>
    <path d="M44 152 L123 117 L126 122 Z"/>
    <path d="M61 72 L125 111 L128 106 Z"/>
  </g>
  <circle cx="128" cy="114" r="8" fill="url(#g-metal)"/>
  <circle cx="128" cy="114" r="4.5" fill="#3f474e"/>
  <circle cx="125" cy="111" r="2" fill="#fff" fill-opacity="0.3"/>
  <path d="M116 204 L106 218 L110 220 L118 208 Z" fill="url(#g-metal)" opacity="0.8"/>
  <path d="M140 204 L150 218 L146 220 L138 208 Z" fill="url(#g-metal)" opacity="0.8"/>
</g>
</svg>
